<?xml version="1.0" encoding="utf-8"?>
<!-- Generator: Adobe Illustrator 18.1.1, SVG Export Plug-In . SVG Version: 6.00 Build 0)  -->
<svg version="1.0" id="Layer_1" xmlns="http://www.w3.org/2000/svg" xmlns:xlink="http://www.w3.org/1999/xlink" x="0px" y="0px"
	 viewBox="0.9 40 896.9 169.5" enable-background="new 0.9 40 896.9 169.5" xml:space="preserve">
<g>
	<path d="M74.3,143.9H74c-17.1-0.2-31.7-12.5-34.7-29.3c-1.2-6.5-0.5-13.1,1.8-18.9c-0.8,0.3-1.6,0.6-2.4,0.9
		c-0.2,0.1-0.3,0.2-0.5,0.3c-0.9,0.5-1.8,1-2.7,1.6c-0.2,0.1-0.4,0.2-0.6,0.4c-0.9,0.7-1.8,1.4-2.7,2.2c-0.2,0.2-0.4,0.3-0.5,0.5
		c-0.8,0.7-1.5,1.5-2.2,2.4c-0.1,0.1-0.2,0.2-0.3,0.4c-0.7,0.9-1.4,1.9-2,3c-0.1,0.2-0.3,0.5-0.4,0.7c-0.6,1.1-1.1,2.2-1.6,3.4
		c-5,13.7,2,28.8,15.7,33.8c2,0.7,4.1,1.2,6.1,1.4l7.7,16.6l9.9,3.6l-3.6,9.9l0.1,0.2l9.9,3.6l-3.6,9.9l0.1,0.1l9.9,3.6l-3.3,9
		l17.2,6.3l6.6-18.1l-9-19.5l-13-27.9C75.4,143.9,74.8,143.9,74.3,143.9z"/>
	<path d="M162.3,150.1l-20.1-13.9L104.3,110c0.1-2.3,0-4.7-0.4-7.2c-0.2-1-0.4-1.9-0.7-2.8c-0.1-0.3-0.2-0.6-0.3-0.9
		c-0.2-0.6-0.4-1.2-0.6-1.8c-0.1-0.3-0.3-0.7-0.4-1c-0.2-0.5-0.5-1.1-0.7-1.6c-0.2-0.3-0.4-0.7-0.5-1c-0.3-0.5-0.5-1-0.8-1.4
		c-0.2-0.3-0.4-0.6-0.6-1c-0.3-0.5-0.6-0.9-1-1.3c-0.2-0.3-0.5-0.6-0.7-0.9c-0.4-0.4-0.7-0.9-1.1-1.3c-0.2-0.3-0.5-0.5-0.7-0.8
		c-0.4-0.4-0.9-0.9-1.4-1.3c-0.2-0.2-0.4-0.4-0.7-0.6c-0.7-0.6-1.4-1.1-2.2-1.7c0,0-0.1,0-0.1-0.1c-0.7-0.5-1.4-0.9-2.2-1.4
		c-0.3-0.1-0.5-0.3-0.8-0.4c-0.5-0.3-1.1-0.6-1.6-0.8c-0.3-0.1-0.7-0.3-1-0.4c-0.5-0.2-1-0.4-1.6-0.6c-0.4-0.1-0.7-0.2-1.1-0.3
		c-0.5-0.2-1.1-0.3-1.6-0.4c0,0-0.1,0-0.1,0c-0.4,10.8-4.7,21-12.5,28.8c-1.7,1.7-3.9,2.6-6.2,2.6c-2.3,0-4.5-0.9-6.2-2.6
		c-3.4-3.4-3.4-9,0-12.4c4.2-4.2,6.7-9.5,7.3-15.2c-13.2,5-21.4,18.9-18.8,33.3c2.6,14.3,15,24.4,29.1,24.5c0.6,0,1.3,0,2-0.1
		c0.3,0,0.6,0,0.9,0c1-0.1,1.9-0.2,2.9-0.4c2.4-0.4,4.7-1.2,6.8-2.2l17.1,11.8l11.8-2.2l2.2,11.8l0.1,0.1l11.8-2.2l2.2,11.8l0.2,0.1
		l11.8-2.2l2,10.7l20.5-3.7L162.3,150.1z"/>
	<path d="M60.6,99.6c-1.1,1.1-1.1,3,0,4.1c0.6,0.6,1.3,0.9,2.1,0.9c0.7,0,1.5-0.3,2.1-0.9c8.6-8.6,12.1-20.4,10.5-31.6
		c-1.1-7.8-4.6-15.3-10.5-21.3C57.5,43.6,47.9,40,38.3,40c-2.2,0-4.3,0.2-6.5,0.6c-0.2,0-0.5,0.1-0.7,0.1c-0.5,0.1-1.1,0.3-1.6,0.4
		c-0.6,0.2-1.3,0.3-1.9,0.5c-0.1,0-0.2,0.1-0.3,0.1c-4.1,1.2-8,3.2-11.5,5.9c-1.4,1-2.7,2.1-4,3.4c-14.6,14.6-14.6,38.3,0,52.9
		c2.3,2.3,5,4.3,7.8,5.9c0-0.1,0.1-0.3,0.1-0.4c0.5-1.3,1.1-2.6,1.9-4.2c0.1-0.2,0.3-0.5,0.4-0.7c-2.2-1.3-4.3-2.9-6.1-4.7
		C3.7,87.3,3.7,67.3,16,55c1.9-1.9,3.9-3.4,6.1-4.7c1.1-0.7,2.3-1.2,3.4-1.7c0.3-0.1,0.6-0.2,0.9-0.4c1.2-0.5,2.3-0.9,3.5-1.2
		c0.1,0,0.2,0,0.3-0.1c1.1-0.3,2.3-0.5,3.4-0.7c0.3,0,0.6-0.1,0.9-0.1c1.2-0.1,2.5-0.2,3.7-0.2c0,0,0.1,0,0.1,0c0.6,0,1.1,0,1.7,0.1
		c0.3,0,0.6,0,0.8,0c0.9,0.1,1.8,0.2,2.7,0.3c4.9,0.8,9.7,2.8,13.8,5.9c1.1,0.9,2.3,1.8,3.3,2.8c4.9,4.9,7.9,11.1,8.8,17.5
		C70.9,82.1,68,92.3,60.6,99.6z"/>
</g>
<g>
	<path d="M219.8,97.5v9.7c3.2-3.9,6.6-6.8,10.2-8.7c3.6-1.9,7.9-2.9,12.9-2.9c5.3,0,10.1,1.2,14.6,3.7c4.5,2.5,7.9,5.9,10.3,10.3
		c2.4,4.4,3.7,9,3.7,13.8c0,7.7-2.7,14.2-8.2,19.7c-5.5,5.4-12.2,8.2-20.2,8.2c-9.5,0-17.3-3.9-23.2-11.6v32.2h13
		c1.3,0,2.2,0.2,2.7,0.7c0.6,0.5,0.8,1.1,0.8,1.9c0,0.8-0.3,1.4-0.8,1.9c-0.6,0.5-1.5,0.8-2.7,0.8h-25.5c-1.3,0-2.2-0.2-2.7-0.7
		c-0.6-0.5-0.8-1.1-0.8-1.9c0-0.8,0.3-1.5,0.8-1.9c0.6-0.5,1.5-0.7,2.7-0.7h7.2v-68.9h-7.2c-1.3,0-2.2-0.3-2.7-0.8
		c-0.6-0.5-0.8-1.2-0.8-2c0-0.8,0.3-1.4,0.8-1.9c0.6-0.5,1.5-0.8,2.7-0.8H219.8z M266,123.4c0-6.1-2.2-11.4-6.7-15.8
		c-4.5-4.4-9.9-6.6-16.4-6.6c-6.5,0-12,2.2-16.5,6.6c-4.5,4.4-6.7,9.7-6.7,15.8c0,6.1,2.2,11.4,6.7,15.8c4.5,4.4,10,6.6,16.5,6.6
		c6.4,0,11.8-2.2,16.3-6.6C263.8,134.9,266,129.6,266,123.4z"/>
	<path d="M336.3,152.6v-7.8c-7.3,6.6-15.2,9.9-23.6,9.9c-5.2,0-9.2-1.4-11.9-4.3c-3.5-3.7-5.3-8.1-5.3-13v-34.5h-7.2
		c-1.3,0-2.2-0.3-2.7-0.8c-0.6-0.5-0.8-1.2-0.8-2c0-0.8,0.3-1.4,0.8-1.9c0.6-0.5,1.5-0.8,2.7-0.8h12.5v39.9c0,3.5,1.1,6.3,3.3,8.6
		c2.2,2.2,5,3.4,8.3,3.4c8.7,0,16.7-4,23.9-12v-34.5h-9.9c-1.3,0-2.2-0.3-2.7-0.8c-0.6-0.5-0.8-1.2-0.8-2c0-0.8,0.3-1.4,0.8-1.9
		c0.5-0.5,1.5-0.8,2.7-0.8h15.2v49.7h4.5c1.3,0,2.2,0.2,2.7,0.7c0.6,0.5,0.8,1.1,0.8,1.9c0,0.8-0.3,1.4-0.8,1.9
		c-0.6,0.5-1.5,0.8-2.7,0.8H336.3z"/>
	<path d="M376,72.8v35.4c6.4-8.4,14.2-12.6,23.3-12.6c7.8,0,14.5,2.8,20,8.5c5.6,5.7,8.3,12.6,8.3,20.8c0,8.3-2.8,15.3-8.4,21.1
		c-5.6,5.8-12.3,8.6-19.9,8.6c-9.3,0-17.1-4.2-23.3-12.6v10.5h-12.5c-1.3,0-2.2-0.3-2.7-0.8c-0.6-0.5-0.8-1.1-0.8-1.9
		c0-0.8,0.3-1.5,0.8-1.9c0.5-0.5,1.5-0.7,2.7-0.7h7.2v-69h-7.2c-1.3,0-2.2-0.3-2.7-0.8c-0.6-0.5-0.8-1.2-0.8-2
		c0-0.8,0.3-1.4,0.8-1.9c0.5-0.5,1.5-0.8,2.7-0.8H376z M422.4,125.2c0-6.7-2.3-12.4-6.9-17.1c-4.6-4.7-10-7-16.2-7
		c-6.2,0-11.6,2.3-16.2,7c-4.6,4.7-6.9,10.4-6.9,17.1s2.3,12.5,6.9,17.1c4.6,4.7,10,7,16.2,7c6.2,0,11.6-2.3,16.2-7
		C420.1,137.6,422.4,131.9,422.4,125.2z"/>
	<path d="M463.4,128.8v23.8h-12.5c-1.3,0-2.2-0.3-2.7-0.8c-0.6-0.5-0.8-1.1-0.8-1.9c0-0.8,0.3-1.5,0.8-1.9c0.6-0.5,1.5-0.7,2.7-0.7
		h7.2v-69h-7.2c-1.3,0-2.2-0.3-2.7-0.8c-0.6-0.5-0.8-1.2-0.8-2c0-0.8,0.3-1.4,0.8-1.9s1.5-0.8,2.7-0.8h12.5V122l22.7-19.1h-2.7
		c-1.3,0-2.2-0.3-2.7-0.8c-0.6-0.5-0.8-1.1-0.8-1.9c0-0.8,0.3-1.5,0.8-2c0.6-0.5,1.5-0.8,2.7-0.8h17.1c1.3,0,2.2,0.3,2.8,0.8
		c0.6,0.5,0.8,1.2,0.8,2c0,0.8-0.3,1.4-0.8,1.9c-0.6,0.5-1.5,0.8-2.8,0.8h-6.2l-20.9,17.4l26.4,26.9h6.2c1.3,0,2.2,0.2,2.8,0.7
		c0.6,0.5,0.8,1.1,0.8,1.9c0,0.8-0.3,1.4-0.8,1.9c-0.6,0.5-1.5,0.8-2.8,0.8h-17.3c-1.3,0-2.2-0.3-2.7-0.8c-0.6-0.5-0.8-1.1-0.8-1.9
		c0-0.8,0.3-1.5,0.8-1.9c0.6-0.5,1.5-0.7,2.7-0.7h3.8l-23-23.6L463.4,128.8z"/>
	<path d="M581.3,126.3h-54.4c0.9,6.9,3.8,12.5,8.7,16.7c4.9,4.2,10.9,6.3,18,6.3c4,0,8.2-0.7,12.5-2c4.4-1.3,7.9-3.1,10.7-5.2
		c0.8-0.6,1.5-1,2.1-1c0.7,0,1.3,0.3,1.8,0.8c0.5,0.5,0.8,1.2,0.8,1.9c0,0.7-0.3,1.4-1,2.1c-2,2.1-5.6,4.1-10.8,5.9
		s-10.5,2.8-16,2.8c-9.2,0-16.8-3-22.9-9c-6.1-6-9.2-13.3-9.2-21.8c0-7.8,2.9-14.4,8.6-20c5.7-5.6,12.9-8.3,21.3-8.3
		c8.7,0,15.9,2.9,21.6,8.6C578.6,109.9,581.4,117.3,581.3,126.3z M575.9,120.9c-1.1-5.9-3.8-10.7-8.4-14.4
		c-4.5-3.7-9.9-5.5-16.1-5.5c-6.2,0-11.6,1.8-16.1,5.5c-4.5,3.6-7.3,8.5-8.4,14.4H575.9z"/>
	<path d="M630.9,152.6l-24.8-49.7h-1.6c-1.3,0-2.2-0.3-2.7-0.8c-0.6-0.5-0.8-1.1-0.8-1.9c0-0.6,0.1-1,0.4-1.5c0.3-0.4,0.6-0.8,1.1-1
		c0.4-0.2,1.1-0.3,2.1-0.3h14.6c1.3,0,2.2,0.3,2.7,0.8c0.6,0.5,0.8,1.2,0.8,2c0,0.8-0.3,1.4-0.8,1.9c-0.6,0.5-1.5,0.8-2.7,0.8h-7.2
		l21.8,43.8l21.5-43.8h-7.2c-1.3,0-2.2-0.3-2.7-0.8c-0.6-0.5-0.8-1.2-0.8-2c0-0.8,0.3-1.4,0.8-1.9c0.6-0.5,1.5-0.8,2.7-0.8h14.6
		c1.3,0,2.2,0.3,2.8,0.8c0.5,0.5,0.8,1.2,0.8,2c0,0.6-0.2,1.1-0.5,1.5c-0.3,0.5-0.7,0.8-1.1,0.9c-0.4,0.1-1.6,0.2-3.6,0.2
		l-33.8,68.9h8.3c1.3,0,2.2,0.2,2.7,0.7c0.6,0.5,0.8,1.1,0.8,1.9c0,0.8-0.3,1.4-0.8,1.9c-0.6,0.5-1.5,0.8-2.7,0.8h-30.8
		c-1.3,0-2.2-0.2-2.7-0.7c-0.6-0.5-0.8-1.1-0.8-1.9c0-0.8,0.3-1.5,0.8-1.9c0.6-0.5,1.5-0.7,2.7-0.7h16.7L630.9,152.6z"/>
	<path d="M707.6,137.3h2.3c2.4,0,4.4,0.8,6.1,2.5c1.7,1.7,2.5,3.7,2.5,6.1c0,2.5-0.9,4.5-2.6,6.2s-3.7,2.5-6.1,2.5h-2.3
		c-2.4,0-4.4-0.8-6.1-2.5c-1.7-1.7-2.5-3.7-2.5-6.1c0-2.5,0.9-4.5,2.6-6.2C703.2,138.1,705.2,137.3,707.6,137.3z"/>
	<path d="M804.4,101c0-1.2,0.3-2.1,0.8-2.7c0.5-0.6,1.1-0.8,1.9-0.8c0.8,0,1.5,0.3,2,0.8c0.5,0.6,0.8,1.5,0.8,2.8v9.2
		c0,1.3-0.3,2.2-0.8,2.7c-0.5,0.6-1.2,0.8-2,0.8c-0.7,0-1.3-0.2-1.8-0.7c-0.5-0.5-0.8-1.2-0.9-2.3c-0.3-2.5-1.6-4.6-3.9-6.3
		c-3.5-2.4-8.1-3.6-13.8-3.6c-6,0-10.6,1.2-13.9,3.6c-2.5,1.8-3.8,3.9-3.8,6.1c0,2.5,1.5,4.7,4.5,6.4c2,1.2,5.9,2.1,11.6,2.7
		c7.4,0.8,12.6,1.7,15.4,2.7c4.1,1.5,7.2,3.5,9.2,6.2c2,2.6,3,5.5,3,8.5c0,4.5-2.2,8.6-6.5,12.1s-10.8,5.3-19.2,5.3
		c-8.4,0-15.3-2.1-20.7-6.4c0,1.4-0.1,2.4-0.3,2.8c-0.2,0.4-0.5,0.8-0.9,1.1c-0.4,0.3-0.9,0.4-1.5,0.4c-0.8,0-1.4-0.3-1.9-0.8
		c-0.5-0.6-0.8-1.5-0.8-2.7v-11c0-1.3,0.2-2.2,0.7-2.7c0.5-0.6,1.1-0.8,1.9-0.8c0.8,0,1.4,0.3,1.9,0.8c0.5,0.5,0.8,1.2,0.8,2.1
		c0,1.9,0.5,3.6,1.5,4.9c1.5,2,3.8,3.7,7.1,5.1c3.2,1.3,7.2,2,11.9,2c7,0,12.1-1.3,15.5-3.9c3.4-2.6,5.1-5.3,5.1-8.2
		c0-3.3-1.7-6-5.1-7.9c-3.5-2-8.5-3.3-15.2-4c-6.6-0.7-11.4-1.6-14.3-2.7c-2.9-1.1-5.1-2.8-6.7-5c-1.6-2.2-2.4-4.6-2.4-7.1
		c0-4.6,2.2-8.2,6.7-10.9c4.5-2.7,9.9-4,16.1-4C793.8,95.6,799.8,97.4,804.4,101z"/>
	<path d="M847.4,72.8v32.9c3.4-3.7,6.6-6.3,9.8-7.8c3.1-1.5,6.6-2.3,10.5-2.3c4.2,0,7.7,0.7,10.6,2.2c2.9,1.5,5.3,3.7,7.3,6.7
		c1.9,3,2.9,6.2,2.9,9.6v33.1h6c1.3,0,2.2,0.2,2.8,0.7c0.5,0.5,0.8,1.1,0.8,1.9c0,0.8-0.3,1.4-0.8,1.9c-0.5,0.5-1.5,0.8-2.8,0.8H877
		c-1.3,0-2.2-0.3-2.8-0.8c-0.6-0.5-0.8-1.1-0.8-1.9c0-0.8,0.3-1.5,0.8-1.9c0.5-0.5,1.5-0.7,2.8-0.7h6v-32.7c0-3.9-1.4-7.1-4.2-9.7
		c-2.8-2.6-6.6-3.9-11.6-3.9c-3.9,0-7.2,1-10,2.9c-2,1.4-5.3,4.6-9.9,9.6v33.8h6c1.3,0,2.2,0.2,2.7,0.7c0.6,0.5,0.8,1.1,0.8,1.9
		c0,0.8-0.3,1.4-0.8,1.9c-0.6,0.5-1.5,0.8-2.7,0.8H836c-1.3,0-2.2-0.3-2.7-0.8c-0.6-0.5-0.8-1.1-0.8-1.9c0-0.8,0.3-1.5,0.8-1.9
		c0.5-0.5,1.5-0.7,2.7-0.7h6v-69h-7.2c-1.3,0-2.2-0.3-2.7-0.8c-0.6-0.5-0.8-1.2-0.8-2c0-0.8,0.3-1.4,0.8-1.9
		c0.5-0.5,1.5-0.8,2.7-0.8H847.4z"/>
</g>
</svg>
